<?xml version="1.0" encoding="iso-8859-1"?>
<!-- Uploaded to: SVG Repo, www.svgrepo.com, Generator: SVG Repo Mixer Tools -->
<svg height="800px" width="800px" version="1.1" id="Capa_1" xmlns="http://www.w3.org/2000/svg" xmlns:xlink="http://www.w3.org/1999/xlink" 
	 viewBox="0 0 488.202 488.202" xml:space="preserve">
<g>
	<g>
		<!-- Usuario derecho - Blanco -->
		<g>
			<path fill="#FFFFFF" d="M477.9,336.851c-36.7-30.1-76.2-50.1-84.2-54c-0.9-0.4-1.5-1.4-1.5-2.4v-57.1c7.2-4.8,11.9-12.9,11.9-22.2v-59.2
				c0-29.4-23.9-53.3-53.3-53.3h-6.4H338c-29.4,0-53.3,23.9-53.3,53.3v59.2c0,9.3,4.7,17.4,11.9,22.2v57.1c0,1-0.6,1.9-1.5,2.4
				c-4.2,2-16.9,8.4-33.3,18.3c9.1,6.3,18.5,13.2,27.7,20.8c11.1,9.1,17.5,22.6,17.5,37v40.5h37.3h143.9v-40.5
				C488.3,350.451,484.5,342.351,477.9,336.851z"/>
		</g>
		<!-- Usuario izquierdo - Amarillo -->
		<g>
			<path fill="#FBBF24" d="M277.4,336.851c-36.7-30.1-76.2-50.1-84.2-54c-0.9-0.4-1.5-1.4-1.5-2.4v-57.1c7.2-4.8,11.9-12.9,11.9-22.2v-59.2
				c0-29.4-23.9-53.3-53.3-53.3h-6.4h-6.4c-29.4,0-53.3,23.9-53.3,53.3v59.2c0,9.3,4.7,17.4,11.9,22.2v57.1c0,1-0.6,1.9-1.5,2.4
				c-8,3.9-47.6,23.9-84.2,54c-6.6,5.4-10.4,13.6-10.4,22.2v40.5h143.9h143.9v-40.5C287.8,350.451,284,342.351,277.4,336.851z"/>
		</g>
	</g>
</g>
</svg>