<?xml version="1.0" encoding="iso-8859-1"?>
<svg height="800px" width="800px" version="1.1" id="Layer_1" xmlns="http://www.w3.org/2000/svg" xmlns:xlink="http://www.w3.org/1999/xlink" 
	 viewBox="0 0 300.003 300.003" xml:space="preserve">
<g>
	<g>
		<circle cx="150" cy="150" r="149" fill="#FFFFFF"/>
		<path fill="#2563EB" d="M189.226,218.202c-2.736,2.734-6.321,4.101-9.902,4.101c-3.582,0-7.169-1.367-9.902-4.103
			l-56.295-56.292c-0.838-0.537-1.639-1.154-2.368-1.886c-2.796-2.799-4.145-6.479-4.077-10.144
			c-0.065-3.667,1.281-7.35,4.077-10.146c0.734-0.731,1.53-1.349,2.368-1.886l56.043-56.043c5.47-5.465,14.34-5.467,19.808,0.003
			c5.47,5.467,5.47,14.335,0,19.808l-48.265,48.265l48.514,48.516C194.695,203.864,194.695,212.732,189.226,218.202z"/>
	</g>
</g>
</svg>