<?xml version="1.0" encoding="iso-8859-1"?>
<!-- Uploaded to: SVG Repo, www.svgrepo.com, Generator: SVG Repo Mixer Tools -->
<svg height="800px" width="800px" version="1.1" id="Layer_1" xmlns="http://www.w3.org/2000/svg" xmlns:xlink="http://www.w3.org/1999/xlink" 
	 viewBox="0 0 392.65 392.65" xml:space="preserve">
<g>
	<path style="fill:#FFFFFF;" d="M153.846,250.071c-18.489,0-33.487,14.998-33.487,33.487v87.337h66.909v-87.402
		C187.268,265.068,172.27,250.071,153.846,250.071z"/>
	<path style="fill:#FFFFFF;" d="M153.846,24.907l-111.644,88.76h4.073c6.012,0,10.925,4.848,10.925,10.925V370.83h41.438v-87.337
		c0-30.448,24.824-55.273,55.273-55.273s55.273,24.824,55.273,55.273v87.337h41.438V124.592c0-6.012,4.848-10.925,10.925-10.925
		h4.073L153.846,24.907z"/>
</g>
<path style="fill:#FFFFFF;" d="M272.343,236.559h39.628c6.012,0,10.925,4.848,10.925,10.925c0,6.012-4.848,10.925-10.925,10.925
	h-39.628v21.786h17.778c6.012,0,10.925,4.848,10.925,10.925c0,6.012-4.848,10.925-10.925,10.925h-17.778v68.848h98.392V226.41
	l-98.392-29.737V236.559z"/>
<g>
	<path style="fill:#2563EB;" d="M384.828,207.856l-112.42-34.004v-38.4h24.501c10.214,0.388,14.998-13.576,6.788-19.459
		L160.699,2.41c-3.943-3.168-9.568-3.168-13.576,0L4.125,115.994c-7.822,5.883-3.943,19.265,6.788,19.459h24.501v246.238
		c0,6.012,4.848,10.925,10.925,10.925h335.386c6.012,0,10.925-4.848,10.925-10.925V218.264
		C392.521,213.481,389.353,209.279,384.828,207.856z M187.268,370.83h-66.909v-87.337c0-18.489,14.998-33.487,33.487-33.487
		s33.487,14.998,33.487,33.487v87.337H187.268z M261.482,113.666c-6.012,0-10.99,4.848-10.99,10.925V370.83h-41.438v-87.337
		c0-30.448-24.824-55.273-55.273-55.273s-55.273,24.824-55.273,55.273v87.337H57.135V124.592c0-6.012-4.848-10.925-10.925-10.925
		h-4.073l111.644-88.76l111.709,88.76H261.482z M370.735,370.83h-98.392v-68.848h17.778c6.012,0,10.925-4.849,10.925-10.925
		c0-6.012-4.848-10.925-10.925-10.925h-17.778V258.41h39.628c6.012,0,10.925-4.848,10.925-10.925s-4.848-10.925-10.925-10.925
		h-39.628v-39.887l98.392,29.737V370.83z"/>
	<path style="fill:#2563EB;" d="M142.921,79.792v18.36h-19.394c-6.012,0-10.925,4.848-10.925,10.925
		c0,6.012,4.848,10.925,10.925,10.925h19.394v61.996c0,6.012,4.848,10.925,10.925,10.925c6.012,0,10.925-4.848,10.925-10.925
		v-61.996h19.394c6.012,0,10.925-4.848,10.925-10.925c0-6.012-4.848-10.925-10.925-10.925h-19.394v-18.36
		c0-6.012-4.848-10.925-10.925-10.925C147.834,68.931,142.921,73.78,142.921,79.792z"/>
</g>
<!-- Techo amarillo -->
<path style="fill:#FBBF24;" d="M153.846,24.907l-111.644,88.76h223.289L153.846,24.907z"/>
<!-- Puerta amarilla -->
<path style="fill:#FBBF24;" d="M187.268,283.493c0-18.489-14.998-33.487-33.487-33.487s-33.487,14.998-33.487,33.487v87.337h66.909
	v-87.337H187.268z"/>
<!-- Cruz azul (encima del techo) -->
<path style="fill:#2563EB;" d="M142.921,79.792v18.36h-19.394c-6.012,0-10.925,4.848-10.925,10.925
	c0,6.012,4.848,10.925,10.925,10.925h19.394v61.996c0,6.012,4.848,10.925,10.925,10.925c6.012,0,10.925-4.848,10.925-10.925
	v-61.996h19.394c6.012,0,10.925-4.848,10.925-10.925c0-6.012-4.848-10.925-10.925-10.925h-19.394v-18.36
	c0-6.012-4.848-10.925-10.925-10.925C147.834,68.931,142.921,73.78,142.921,79.792z"/>
</svg>